<mxfile host="app.diagrams.net" modified="2022-01-18T18:49:29.746Z" agent="5.0 (Macintosh; Intel Mac OS X 10_15_7) AppleWebKit/537.36 (KHTML, like Gecko) Chrome/96.0.4664.110 Safari/537.36" etag="GGdMRTQbLfaDr9orkmoa" version="15.4.1" type="github">
  <diagram id="xmpSBvKa1lmOMdrvXbMN" name="Page-1">
    <mxGraphModel dx="1426" dy="946" grid="1" gridSize="10" guides="1" tooltips="1" connect="1" arrows="1" fold="1" page="1" pageScale="1" pageWidth="850" pageHeight="1100" math="0" shadow="0">
      <root>
        <mxCell id="0" />
        <mxCell id="1" parent="0" />
        <mxCell id="heHjXcSPuRc9zesgZTG5-9" style="edgeStyle=orthogonalEdgeStyle;rounded=0;orthogonalLoop=1;jettySize=auto;html=1;exitX=0.5;exitY=1;exitDx=0;exitDy=0;entryX=0.5;entryY=0;entryDx=0;entryDy=0;" edge="1" parent="1" source="heHjXcSPuRc9zesgZTG5-2" target="heHjXcSPuRc9zesgZTG5-4">
          <mxGeometry relative="1" as="geometry" />
        </mxCell>
        <mxCell id="heHjXcSPuRc9zesgZTG5-10" style="edgeStyle=orthogonalEdgeStyle;rounded=0;orthogonalLoop=1;jettySize=auto;html=1;exitX=0.5;exitY=1;exitDx=0;exitDy=0;" edge="1" parent="1" source="heHjXcSPuRc9zesgZTG5-2" target="heHjXcSPuRc9zesgZTG5-5">
          <mxGeometry relative="1" as="geometry" />
        </mxCell>
        <mxCell id="heHjXcSPuRc9zesgZTG5-2" value="Scopus&lt;br&gt;Bibliographic records&lt;br&gt;&amp;nbsp;2015-2021, ~14k" style="shape=datastore;whiteSpace=wrap;html=1;" vertex="1" parent="1">
          <mxGeometry x="155" y="60" width="160" height="110" as="geometry" />
        </mxCell>
        <mxCell id="heHjXcSPuRc9zesgZTG5-12" style="edgeStyle=orthogonalEdgeStyle;rounded=0;orthogonalLoop=1;jettySize=auto;html=1;exitX=0.5;exitY=1;exitDx=0;exitDy=0;entryX=0.5;entryY=0;entryDx=0;entryDy=0;" edge="1" parent="1" source="heHjXcSPuRc9zesgZTG5-4" target="heHjXcSPuRc9zesgZTG5-6">
          <mxGeometry relative="1" as="geometry" />
        </mxCell>
        <mxCell id="heHjXcSPuRc9zesgZTG5-4" value="Abstract Embedding&lt;br&gt;&lt;b&gt;SPECTER&lt;/b&gt;" style="shape=hexagon;perimeter=hexagonPerimeter2;whiteSpace=wrap;html=1;fixedSize=1;" vertex="1" parent="1">
          <mxGeometry x="20" y="210" width="150" height="50" as="geometry" />
        </mxCell>
        <mxCell id="heHjXcSPuRc9zesgZTG5-14" style="edgeStyle=orthogonalEdgeStyle;rounded=0;orthogonalLoop=1;jettySize=auto;html=1;exitX=0.5;exitY=1;exitDx=0;exitDy=0;entryX=0.625;entryY=0;entryDx=0;entryDy=0;" edge="1" parent="1" source="heHjXcSPuRc9zesgZTG5-5" target="heHjXcSPuRc9zesgZTG5-7">
          <mxGeometry relative="1" as="geometry" />
        </mxCell>
        <mxCell id="heHjXcSPuRc9zesgZTG5-5" value="Named Entity Extraction&amp;nbsp;&lt;br&gt;&lt;b&gt;SciBERT /&amp;nbsp;SCI-ERC&lt;/b&gt;" style="shape=hexagon;perimeter=hexagonPerimeter2;whiteSpace=wrap;html=1;fixedSize=1;" vertex="1" parent="1">
          <mxGeometry x="280" y="210" width="170" height="60" as="geometry" />
        </mxCell>
        <mxCell id="heHjXcSPuRc9zesgZTG5-15" style="edgeStyle=orthogonalEdgeStyle;rounded=0;orthogonalLoop=1;jettySize=auto;html=1;exitX=1;exitY=0.5;exitDx=0;exitDy=0;" edge="1" parent="1" source="heHjXcSPuRc9zesgZTG5-6" target="heHjXcSPuRc9zesgZTG5-7">
          <mxGeometry relative="1" as="geometry" />
        </mxCell>
        <mxCell id="heHjXcSPuRc9zesgZTG5-6" value="Clusering&lt;br&gt;&lt;b&gt;UMAP / HDBSCAN&lt;/b&gt;" style="shape=hexagon;perimeter=hexagonPerimeter2;whiteSpace=wrap;html=1;fixedSize=1;" vertex="1" parent="1">
          <mxGeometry x="20" y="280" width="140" height="70" as="geometry" />
        </mxCell>
        <mxCell id="heHjXcSPuRc9zesgZTG5-17" style="edgeStyle=orthogonalEdgeStyle;rounded=0;orthogonalLoop=1;jettySize=auto;html=1;exitX=0.5;exitY=1;exitDx=0;exitDy=0;entryX=0.5;entryY=0;entryDx=0;entryDy=0;" edge="1" parent="1" source="heHjXcSPuRc9zesgZTG5-7" target="heHjXcSPuRc9zesgZTG5-16">
          <mxGeometry relative="1" as="geometry" />
        </mxCell>
        <mxCell id="heHjXcSPuRc9zesgZTG5-7" value="Topic-keywords&lt;br&gt;&lt;b&gt;cTF-IDF&lt;/b&gt;" style="shape=hexagon;perimeter=hexagonPerimeter2;whiteSpace=wrap;html=1;fixedSize=1;" vertex="1" parent="1">
          <mxGeometry x="190" y="340" width="110" height="60" as="geometry" />
        </mxCell>
        <mxCell id="heHjXcSPuRc9zesgZTG5-22" style="edgeStyle=orthogonalEdgeStyle;rounded=0;orthogonalLoop=1;jettySize=auto;html=1;exitX=1;exitY=0.5;exitDx=0;exitDy=0;" edge="1" parent="1" source="heHjXcSPuRc9zesgZTG5-16" target="heHjXcSPuRc9zesgZTG5-19">
          <mxGeometry relative="1" as="geometry" />
        </mxCell>
        <mxCell id="heHjXcSPuRc9zesgZTG5-16" value="Bibliographic records sorted into&lt;b&gt; 71 latent topics&lt;/b&gt; over time with human interpretable descriptions divided into application-keywords and methods-keywords." style="rounded=1;whiteSpace=wrap;html=1;" vertex="1" parent="1">
          <mxGeometry x="90" y="420" width="310" height="70" as="geometry" />
        </mxCell>
        <mxCell id="heHjXcSPuRc9zesgZTG5-19" value="Manual selection of relevant topics and real-world case descriptions" style="shape=hexagon;perimeter=hexagonPerimeter2;whiteSpace=wrap;html=1;fixedSize=1;" vertex="1" parent="1">
          <mxGeometry x="358" y="330" width="182" height="60" as="geometry" />
        </mxCell>
        <mxCell id="heHjXcSPuRc9zesgZTG5-20" value="" style="html=1;verticalLabelPosition=bottom;align=center;labelBackgroundColor=#ffffff;verticalAlign=top;strokeWidth=2;strokeColor=#000000;shadow=0;dashed=0;shape=mxgraph.ios7.icons.select;" vertex="1" parent="1">
          <mxGeometry x="460" y="388" width="30" height="30" as="geometry" />
        </mxCell>
        <mxCell id="heHjXcSPuRc9zesgZTG5-38" value="Example:Topic 48 - Fault Diagnosis (selected keywords)&lt;br&gt;&lt;b&gt;Task-keywords&lt;/b&gt;:&amp;nbsp;&#39;fault diagnosis&#39;, &#39;fault detection&#39;, &#39;classification&#39;&lt;br&gt;&lt;br&gt;&lt;b&gt;Method-keywords&lt;/b&gt;: &#39;convolutional neural network (CNN)&#39;,&lt;br&gt;&#39;principal component analysis&#39;, &#39;PSO&#39;, &#39;machine learning&#39;, &#39;deep learning&#39;, &#39;signal processing methods&#39;,&amp;nbsp;" style="shape=document;whiteSpace=wrap;html=1;boundedLbl=1;strokeColor=#000000;align=left;" vertex="1" parent="1">
          <mxGeometry x="90" y="500" width="360" height="160" as="geometry" />
        </mxCell>
      </root>
    </mxGraphModel>
  </diagram>
</mxfile>
